<svg width="64" height="64" viewBox="0 0 64 64" fill="none" xmlns="http://www.w3.org/2000/svg">
<path d="M32 59C46.9117 59 59 46.9117 59 32C59 17.0883 46.9117 5 32 5C17.0883 5 5 17.0883 5 32C5 46.9117 17.0883 59 32 59Z" fill="#B4BEFE"/>
<path opacity="0.2" d="M40.2901 51.0312C38.8147 51.0312 37.3669 50.6005 36.1457 49.8062C34.9245 50.6005 33.474 51.0312 32.0013 51.0312C30.5287 51.0312 29.0782 50.6005 27.857 49.8062C26.6441 50.6005 25.2405 51.0205 23.7624 51.0312H23.7181C21.7123 51.0312 19.8307 50.2532 18.4134 48.8424C17.0181 47.4532 16.25 45.6251 16.25 43.6947V29.6274C16.2528 21.1655 23.3175 14.2812 32.0013 14.2812C40.6852 14.2812 47.75 21.1655 47.75 29.6274V43.7001C47.75 47.5958 44.6555 50.8105 40.7046 51.0205C40.5664 51.0286 40.4282 51.0312 40.2901 51.0312Z" fill="black"/>
<path d="M40.2901 50.375C38.8147 50.375 37.3669 49.9442 36.1457 49.15C34.9245 49.9442 33.474 50.375 32.0013 50.375C30.5287 50.375 29.0782 49.9442 27.857 49.15C26.6441 49.9442 25.2405 50.3642 23.7624 50.375H23.7181C21.7123 50.375 19.8307 49.5969 18.4134 48.1862C17.0181 46.7969 16.25 44.9688 16.25 43.0384V28.9711C16.2528 20.5092 23.3175 13.625 32.0013 13.625C40.6852 13.625 47.75 20.5092 47.75 28.9711V43.0438C47.75 46.9396 44.6555 50.1543 40.7046 50.3642C40.5664 50.3724 40.4282 50.375 40.2901 50.375Z" fill="#28283F"/>
<path opacity="0.2" d="M43.8125 29.7685V43.1841C43.8125 45.2374 42.1928 46.9749 40.0955 47.0879C39.077 47.1418 38.1373 46.8184 37.4101 46.246C36.5386 45.5608 35.3128 45.5915 34.4333 46.2691C33.764 46.785 32.9188 47.0931 31.9974 47.0931C31.076 47.0931 30.2334 46.785 29.564 46.2691C28.6741 45.5839 27.4482 45.5839 26.5584 46.2691C25.8942 46.78 25.0595 47.0879 24.1512 47.0931C21.9699 47.1084 20.1875 45.3118 20.1875 43.179V29.7685C20.1875 23.3905 25.4769 18.2188 31.9999 18.2188C38.5231 18.2188 43.8125 23.3905 43.8125 29.7685Z" fill="black"/>
<path d="M43.8125 29.1122V42.5279C43.8125 44.5811 42.1928 46.3187 40.0955 46.4317C39.077 46.4855 38.1373 46.1621 37.4101 45.5898C36.5386 44.9045 35.3128 44.9353 34.4333 45.6129C33.764 46.1287 32.9188 46.4368 31.9974 46.4368C31.076 46.4368 30.2334 46.1287 29.564 45.6129C28.6741 44.9276 27.4482 44.9276 26.5584 45.6129C25.8942 46.1237 25.0595 46.4317 24.1512 46.4368C21.9699 46.4522 20.1875 44.6556 20.1875 42.5228V29.1122C20.1875 22.7342 25.4769 17.5625 31.9999 17.5625C38.5231 17.5625 43.8125 22.7342 43.8125 29.1122Z" fill="#DADFFF"/>
<path opacity="0.1" d="M24.125 27.4062L28.7188 30.0312L24.125 32.6562" stroke="black" stroke-width="4" stroke-linecap="round" stroke-linejoin="round"/>
<path d="M24.125 26.75L28.7188 29.375L24.125 32" stroke="#28283F" stroke-width="4" stroke-linecap="round" stroke-linejoin="round"/>
<path opacity="0.1" d="M33.3125 30.0312H39.7437" stroke="black" stroke-width="4" stroke-linecap="round" stroke-linejoin="round"/>
<path d="M33.3125 29.375H39.7437" stroke="#28283F" stroke-width="4" stroke-linecap="round" stroke-linejoin="round"/>
<path opacity="0.1" d="M32.0013 13.625C23.3175 13.625 16.2528 20.5094 16.25 28.9713V29.6275C16.2528 21.1656 23.3175 14.2812 32.0013 14.2812C40.6851 14.2812 47.75 21.1656 47.75 29.6275V28.9713C47.75 20.5094 40.6851 13.625 32.0013 13.625Z" fill="#DADFFF"/>
</svg>
