<svg width="64" height="64" viewBox="0 0 64 64" fill="none" xmlns="http://www.w3.org/2000/svg">
<path d="M32 59C46.9117 59 59 46.9117 59 32C59 17.0883 46.9117 5 32 5C17.0883 5 5 17.0883 5 32C5 46.9117 17.0883 59 32 59Z" fill="white"/>
<g clip-path="url(#clip0_2239_22)">
<path opacity="0.5" d="M44.2875 19.8551C46.3276 19.3582 48.0344 21.4454 47.1423 23.3462L34.8243 49.5929C34.0427 51.2584 31.7905 51.5376 30.6258 50.1134L14.7741 30.7287C13.6094 29.3045 14.3302 27.1526 16.1177 26.7172L44.2875 19.8551Z" fill="#77A2E5"/>
<path d="M44.2875 15.3751C46.3276 14.8782 48.0344 16.9654 47.1423 18.8662L34.8243 45.1129C34.0427 46.7784 31.7905 47.0576 30.6258 45.6334L14.7741 26.2487C13.6094 24.8245 14.3302 22.6726 16.1177 22.2372L44.2875 15.3751Z" fill="#77A2E5"/>
</g>
<defs>
<clipPath id="clip0_2239_22">
<rect width="56" height="56" fill="white" transform="translate(4 5)"/>
</clipPath>
</defs>
</svg>
